<?xml version="1.0" encoding="UTF-8" standalone="no"?>
<!-- Generator: Adobe Illustrator 17.1.0, SVG Export Plug-In . SVG Version: 6.00 Build 0)  -->

<svg
   xmlns:dc="http://purl.org/dc/elements/1.1/"
   xmlns:cc="http://creativecommons.org/ns#"
   xmlns:rdf="http://www.w3.org/1999/02/22-rdf-syntax-ns#"
   xmlns:svg="http://www.w3.org/2000/svg"
   xmlns="http://www.w3.org/2000/svg"
   xmlns:xlink="http://www.w3.org/1999/xlink"
   xmlns:sodipodi="http://sodipodi.sourceforge.net/DTD/sodipodi-0.dtd"
   xmlns:inkscape="http://www.inkscape.org/namespaces/inkscape"
   version="1.1"
   id="Слой_1"
   x="0px"
   y="0px"
   viewBox="-0.5 -0.5 1064.1252 602.15314"
   enable-background="new -0.5 -0.5 1063.7 601"
   xml:space="preserve"
   inkscape:version="0.91 r13725"
   sodipodi:docname="Flag-map_of_Latvia.svg"
   width="1064.1251"
   height="602.15314"><metadata
     id="metadata21"><rdf:RDF><cc:Work
         rdf:about=""><dc:format>image/svg+xml</dc:format><dc:type
           rdf:resource="http://purl.org/dc/dcmitype/StillImage" /><dc:title></dc:title></cc:Work></rdf:RDF></metadata><defs
     id="defs19" /><sodipodi:namedview
     pagecolor="#ffffff"
     bordercolor="#666666"
     borderopacity="1"
     objecttolerance="10"
     gridtolerance="10"
     guidetolerance="10"
     inkscape:pageopacity="0"
     inkscape:pageshadow="2"
     inkscape:window-width="1600"
     inkscape:window-height="837"
     id="namedview17"
     showgrid="false"
     fit-margin-top="0"
     fit-margin-left="0"
     fit-margin-right="0"
     fit-margin-bottom="0"
     inkscape:zoom="0.68229201"
     inkscape:cx="476.39594"
     inkscape:cy="301.23819"
     inkscape:window-x="-8"
     inkscape:window-y="-8"
     inkscape:window-maximized="1"
     inkscape:current-layer="Слой_1" /><g
     id="g3"
     transform="translate(-0.9748684,0.41492072)"><defs
       id="defs5"><path
         id="SVGID_1_"
         d="m 494.6,50.8 c 3.1,0.4 5.4,1.2 8.2,2.7 1.4,-1.4 4.7,-2.7 6.5,-3.3 0.1,-2.6 -0.1,-6.8 1.1,-9 2.3,-1.2 4.8,-2.5 6.9,-4 0.6,-0.4 1.1,-1.2 1.7,-1.7 2.9,-2.3 6.4,-3.7 9.9,-5 2.8,0.3 3.2,3.8 5.8,4.3 1.4,-0.8 2.6,-2.7 3.6,-3.9 L 541,30 c 0.6,0.6 3.1,2.8 4,2.8 1.1,-0.7 1.3,-1.3 2.1,-2.4 1.4,-0.3 2.8,-0.5 4.2,-0.6 0.4,-2.1 2.3,-4.8 4.3,-5.5 4.8,-1.7 9.1,2.1 12.5,1.1 4.6,-1.3 6.9,-3.8 10.9,-5.8 2,-1 7.4,-1.1 9.8,-1.2 l 0.4,0 c 0.3,-0.2 1.8,-1.3 1.8,-1.3 0.8,-1.2 1.6,-2.6 2.5,-3.8 0.7,-1 1.7,-1.8 2.4,-2.8 1.4,-1.9 2.4,-4.1 4.2,-5.7 l 2.3,-0.2 c 1.4,-1.5 2.5,-2.7 3.5,-4.4 l 1.8,-0.1 4.7,2.7 c 1.3,-0.2 3.1,-0.3 4.5,0 l 0.7,-1.6 0.7,0.2 1.1,1.6 -0.7,1 2.1,2.4 c 0.1,2 -0.2,3.8 -0.5,5.7 l 1,2 c 0.4,0.1 2.1,0.7 2.1,0.8 2.3,1.9 2.6,5 4.9,7 1.4,0.4 2.5,1 3.9,0.4 1.4,-1.6 0.1,-9.7 -0.1,-12 -1.5,-1.5 -3,-2.9 -4.5,-4.4 0.9,-0.9 2.6,-2.9 3,-4.2 l 1.2,-0.6 c 3.1,3.4 6.6,7.9 9.7,10.8 1.3,1.2 3.5,0.7 5,1.2 2.6,0.9 5.4,2.6 7.8,3.9 l 1.3,2.1 c -1,2.1 -0.1,4.1 0.9,5.9 1.4,0.7 3.9,2.1 5.3,1.9 0.8,-0.5 1.5,-1.1 2.2,-1.7 l 1.2,-0.1 c 0,0.8 0.1,2.9 0.5,3.6 1.6,0.5 3.6,-1.8 6.3,-1 l 2.4,2.2 c -0.4,1.1 -1,4 -0.3,5.1 1,0.3 2.6,0.2 3.6,-0.1 3.1,2.2 8.2,9.2 10.3,9.7 1.7,-0.2 3.4,-0.5 5.1,-1.1 0.6,-0.8 1.6,-2.3 1.9,-3.3 l 1.3,-0.5 c 2,0.2 4.5,1.8 5.8,3.2 1.1,1.2 1.6,3.2 2.7,4.4 2.7,3 6.1,5.4 9.6,7.5 4.6,1.5 8.6,2.7 13.5,2.6 l 3.1,-0.1 2.8,-1.5 1.4,-0.7 2.6,2.5 c 1.5,-0.2 3.3,0.1 4.7,0.6 l 0.1,3.5 c -2.7,1.7 -4.2,10.4 -4.2,13.7 l 1.2,1.2 c 2.1,2 4.9,2.7 7,4.6 l 2.8,2.5 5.1,1 c 1.3,0.3 3.6,1.8 4.9,2.5 0.1,0.1 2.7,0.5 2.9,0.6 l 1.5,2.8 c -0.7,1.8 -1.2,3.1 -2.3,4.8 1.1,1.6 2.6,2.8 3.8,4.3 1,1.2 1.5,3.5 2.7,4.6 0.7,0.7 1.9,1.3 2.7,1.8 l -0.4,1.4 0.7,0.8 c -0.1,1 0,1.3 -0.5,2.1 0.8,1.2 1.2,2.5 2,3.6 l 3.3,5.2 4.1,1 c 3.3,3.2 2.8,1.7 7.1,3.5 1.5,0.6 3.3,2.1 4.9,2.5 3.3,0.9 10.2,-0.8 13,2 l 1.2,9.8 c 1.6,1.2 3.7,2.5 5.7,2.9 l 7.1,-3.1 c 1.8,0.6 3.4,1.2 5,2.1 l 2.2,-1.1 c 0.6,-1.7 1.2,-3.3 1.7,-5 9.3,-5.9 5.1,-4.1 17.7,-5.8 1.5,-1.6 3.1,-3.2 4.7,-4.8 10,-1 9.5,-7.7 16.1,-13 l 2.2,-0.4 c 6.1,4.7 5.1,5.9 13.7,5.7 3.3,3.1 7.2,5.8 10.3,9.1 0.3,0.3 2.6,2.8 2.7,2.9 0.6,0.4 8.9,4.2 9.4,4.4 1.5,0.5 3.3,0.7 4.9,1.2 0.8,0.2 1.7,0.8 2.5,0.9 0.1,0 3,0 3.2,0 1.4,-0.1 3.1,-0.3 4.6,-0.5 2,-0.4 4.2,-1.5 6.2,-1.3 1.8,0.2 3.8,1.1 5.6,1.6 1.9,0.6 3.6,1.1 5.2,2.1 0.8,0.5 1.3,1.1 2.2,1.5 l 1.2,0.6 c 1,0.1 2.4,-0.3 3.5,-0.3 2,-0.1 2.8,-0.1 3.7,-0.2 0.9,-0.1 1.8,-0.4 3.9,-1 3.7,-1.1 7.5,-2.6 11.3,-1.1 -0.2,0.9 -0.8,4.3 -0.3,4.8 1,0.3 1.8,0.7 2.7,1.2 -0.2,3.2 -1.3,6.5 -2.1,9.6 -1.8,0.7 -3.7,1.2 -5.3,2.2 -0.5,1.7 -1,3.2 -0.5,5 0.4,0.7 0.9,1.4 1.6,1.8 1.7,1.1 3.3,1.6 5.1,2.5 0.8,0.4 1.6,1 2.4,1.4 2.1,1 4.3,1.5 6.5,2.1 0.1,0 0.2,0.1 0.3,0.2 4,2 4.2,2.5 6.8,6.4 0.2,0.4 1.6,2.8 1.7,2.9 0.5,0.5 4.6,2.5 5.1,2.8 6.4,3.1 7.9,3.3 11.5,9.7 2.3,0.9 4.5,1.9 6.7,2.8 2.1,2.7 3.8,9 4,12.3 l -0.2,3.1 c -0.1,1 0.1,2.1 -0.2,3 -0.9,2.8 -6.2,21.7 -7.5,22.7 -2,1.6 -3.6,2.8 -5.9,4 -0.1,0 -0.3,0.1 -0.3,0.2 -2.7,2.8 -1.6,2.6 -3.2,5.5 -1,1.7 -3.5,2.6 -3.8,4.8 l 0.6,1.3 2.8,-0.1 0.9,1.5 c -0.4,3 -0.9,6.1 -1,9.1 l -1.9,1 c -0.3,3.3 -2.7,6.3 -1.9,9.6 3.5,1.9 4.1,5.7 1.8,8.9 0.6,2.7 0,6.6 -1.2,9.1 -1.8,1.9 -4.9,2.2 -7.5,4.8 -0.8,2.9 -0.5,5.9 0,8.8 l 0.5,2.8 c 0,0.3 -0.2,0.4 -0.2,0.7 -0.5,1.4 -0.7,2.7 -1,4.1 -0.1,0.6 0,1.4 0,2 l 3.1,-0.1 3,-4.3 c 2.8,-1.1 3.6,-0.8 6.7,-0.6 0.6,-0.7 1.5,-1.4 2.3,-1.9 1.1,-0.2 2.1,0 3.1,0.2 1.1,-0.8 1.2,-2 1.3,-3.2 2.1,0.8 4.6,0.3 6.7,0.3 5.5,4.5 4.7,6.9 8.2,10.8 2.1,2.3 6,0.5 8.5,1.2 0.5,0.1 1.1,0.6 1.6,0.9 0.6,1 0.5,2.9 0,3.9 l -2.6,0.6 c -1.1,1.2 -0.7,5.4 -0.5,7 -1,0.4 -1.8,1.1 -2.7,1.7 -3,2.2 -2.9,2.1 -3.6,5.7 0,0.2 0.6,0.6 0.8,0.9 1.4,2.5 2,2.6 4.4,4.3 2.2,1.6 1.4,1.5 2.7,2.8 0.4,0.4 1.2,0.7 1.7,1 l 1.4,0.8 c -0.1,1.8 -0.2,3.5 -0.1,5.2 1.2,1 3.3,3.1 4,4.5 1.4,2.9 0.3,5.5 1,8.1 0.2,0.7 0.7,1.5 1,2.2 1,2.6 1.8,5 2.3,7.7 l 0.1,0.4 c 0.4,0.3 2.4,1.5 2.5,1.6 1,0.2 2.3,0 3.3,0.2 2.6,0.5 5.6,1.4 8,2.7 1.2,2.8 1.1,4.5 0.8,7.3 -1.4,0.4 -5,2 -5.7,3.5 l 0.4,2.7 c 0.5,0.8 1.7,1.6 2.6,1.7 l 0.9,1.7 c -0.4,0.8 -0.7,1.8 -1,2.7 0.1,0.2 0.4,1.3 0.4,1.4 0.9,1.2 8.6,11.4 9,12.8 0.6,2.4 0.4,5.9 1.1,8.6 -1.3,3.4 -1.6,3.8 -3.9,6.5 1.7,2.6 3.5,5.5 4.9,8.3 0.6,1.2 0.9,3 1.3,4.3 0.9,2.9 1.9,5.6 3.3,8.3 0.6,1.1 1.7,2.7 1.7,3.9 l 0,1.2 c -1.5,2.2 -8.2,10.5 -7.6,13.1 0.8,0.7 1.6,1.7 2.1,2.6 -3.7,1.5 -3.6,6.7 -4,10 -2.8,1.4 -5.8,2.2 -8.6,3.4 -0.8,2.6 -2.6,4.3 -4.3,6.3 l -5.4,1.3 -1.4,1.9 c -1.8,0.2 -3.4,-1.1 -5,-1.6 -2,0.6 -3.6,1.6 -5.5,2.3 -0.5,0.6 -2,3.5 -2.1,4.2 -0.2,1 0.1,2.3 -0.2,3.2 -0.3,1.3 -2,4.1 -2.5,5.7 -0.8,0.7 -3.7,2.6 -4.6,2.8 -2.1,0.6 -4.9,0.9 -6.1,3 -2.4,0.2 -6,0.1 -8.1,1.3 -0.2,1 1.9,3.3 2.5,4 -0.6,1.1 -1.3,2.2 -2,3.4 l 1.3,1.6 -2.2,3.2 c -2.1,0.9 -5.1,1.9 -6.9,3.1 -4.5,3.1 -9.3,6.1 -13.4,9.7 -1.5,5.1 -0.9,4.7 -4.5,9.4 l -1.4,1.8 c 0.2,1.8 1.4,12.9 1.2,13.6 -0.6,3.3 -2.8,8.8 -4.5,12.2 -0.2,0.1 -2.3,0.7 -2.4,0.7 -5.9,-0.6 -11.7,-1.2 -17.6,-1.9 -3,-0.3 -5.5,-1.5 -8.2,-2.7 -1.2,-0.6 -2.3,-1.9 -3.2,-2.8 -0.7,0.1 -1.7,0.3 -2.4,0.2 -1.9,2.3 -2.3,2.4 -5.3,3.9 -1.6,0.8 -3.4,1.5 -5.3,1.4 -1.2,-0.1 -5.4,-2.9 -6.2,-3.6 -2.4,-2.2 -4.3,-5.9 -7.8,-6.7 -0.6,-1.8 -2.5,-4.1 -4.1,-5.1 l -6.3,0.4 c -2.4,1.8 -4.4,4.5 -7.2,5.7 -3.5,-1.3 -7.4,-1.8 -11,-0.7 -2.2,1.4 -2.3,3.5 -3.5,4.7 -2,1.9 -4.8,3.4 -6.9,5.2 -3.6,3 -7,13.5 -8.3,18.1 -0.2,0.8 -2.1,2.4 -2.8,3.1 -2.7,0.1 -7.2,1.8 -8.4,4.4 -1.8,0.8 -6.4,0.7 -8.1,-0.1 -3.7,-1.7 -7.6,-3.8 -11.7,-4.2 -4.2,2.9 -3.8,3.2 -7,7.8 l -0.7,1 c -3.8,0 -7.2,0 -11,0.4 -3.3,-2.7 -7.5,-4.2 -10.9,-6.9 -2.1,-0.6 -4.2,-1.4 -6,-1.5 -1,-0.1 -2.3,0.5 -3.4,0.5 -0.2,0 -2.2,-0.6 -2.5,-0.6 l -0.6,-0.2 c 0.1,-2.5 -3.3,-7.5 -4.7,-9.3 -1.9,-0.3 -3.8,-0.7 -5.8,-1 -0.1,0 -1.9,-1.5 -2.2,-1.8 -0.2,-0.2 -1.8,-1.4 -1.9,-1.5 -1.3,-1.5 -2.3,-4 -3.3,-5.7 -0.1,-0.2 -0.3,-0.4 -0.3,-0.6 -0.8,-2.5 -2.9,-11.3 -3.6,-12.8 -0.1,-0.1 -3.4,-5 -3.4,-5 -0.4,-0.4 -4.7,-2.5 -5.5,-3 -0.3,-0.2 -9,-7.1 -9.2,-7.3 -2.8,-3.4 -5.3,-7.5 -7.9,-11.1 l -0.4,-0.6 c -0.3,-0.5 -4.2,-5.8 -4.3,-5.9 -0.1,-0.1 -4.8,-2.3 -5.3,-2.5 -1.5,-0.8 -3,-2.2 -4.4,-3.2 -3.4,-1.2 -6,-2.1 -9,-3.5 -0.6,-0.5 -2.6,-2.2 -2.9,-2.7 -0.9,-1.5 -0.3,-2.8 -1.8,-4.6 -0.8,-0.5 -2.5,-1 -3.5,-0.8 -0.7,-0.8 -2.1,-3.6 -2.5,-3.8 -3.8,-1.5 -8.1,-2.4 -11.8,-4.3 -1,-0.5 -1.9,-1.2 -2.8,-1.8 -2.7,-1.7 -5.3,-3 -5.6,-6.5 -0.2,-3.6 0.8,-7.1 0.3,-10.8 l -0.9,-0.2 c -1.8,0.8 -3.1,2.4 -5.1,3.1 -3.6,-0.7 -7.4,-0.5 -11.1,-1 -0.8,-0.7 -1.6,-4.3 -1.8,-5.3 l -1.1,-1.1 c -1.4,-0.3 -3.4,-0.3 -4.6,0.7 0.1,0.9 -0.1,2.1 -0.4,2.9 -1.5,1.2 -3.8,1.3 -5.6,0.9 -0.7,-1 -2.5,-2.3 -3.8,-2.2 -1.1,0.2 -3.2,1.2 -3.7,2.3 l -2.3,-2.6 c -0.2,0 -1.1,-0.3 -1.3,-0.3 -1.3,0 -2.9,0.7 -4.2,0.8 -1.1,0.1 -2.6,-0.2 -3.7,0.1 -0.4,0.1 -2.9,1.9 -3.4,2.3 -2.5,-0.2 -5,-4.1 -6.4,-5.8 l -2.4,-0.4 c -0.9,-1.2 -2,-2.3 -3.1,-3.3 -2.1,-0.8 -5.4,2.4 -7.9,2.5 -4.4,0.3 -8.2,-2.2 -12.4,-3 l -0.4,-0.1 c -0.5,-1.3 -0.7,-2.8 -1.9,-3.7 -0.6,-2.1 -1.1,-4 -1.8,-6 -0.6,-1.8 -0.1,-5.8 -0.4,-7.7 -0.1,-0.5 -2.3,-3.3 -2.8,-3.9 l -1.5,-0.6 c -0.9,-1.4 -2,-3.8 -3.1,-4.9 l -0.7,-0.4 c -0.9,-0.5 -1.7,-1.2 -2.5,-1.7 l -3.3,-1.8 c -1.7,-2.4 -1,-8.5 -1.1,-11.5 -2.6,-4.4 -7.6,-10.7 -8.7,-15.4 -0.2,-0.9 0.5,-4 0.8,-4.9 l -0.5,-1.3 -2.6,-1.1 -2.5,0.9 -0.9,1.2 c 0.1,1.9 1.2,3.7 1,5.5 -0.7,1 -1.9,2 -3,2.5 l -3.2,0 -1.9,-1.8 -0.9,0.5 -0.7,1.6 c -1.3,1.4 -3.3,1.1 -5.1,1.1 -2.4,0 -6,0.3 -8,1.7 l -1,3.1 c -1.8,1.8 -6,2.3 -8.5,2.7 -1.2,0.8 -3.2,3.1 -2.8,4.7 -1,1.3 -1.9,2.9 -3,4.1 -1.6,1.8 -3.6,2.9 -4.9,5.2 -0.4,1.3 0.1,3.8 0.6,5 -2.1,3.7 -8.7,4.4 -12.4,5.7 -2,0.7 -4.4,2.3 -6.3,3.5 l -2.5,-0.2 c -1.4,-1.6 -3.3,-3.1 -5,-4.5 l -3,-0.3 c -2.8,-2.1 -5.1,-3.5 -8.1,-5.2 -0.4,0 -3.7,0.3 -3.9,0.4 -0.2,0 -7.8,4.3 -8.1,4.5 -2.1,1.3 -4.2,3.1 -6.3,4.2 -0.8,0.4 -5.5,1.5 -6.7,1.3 -1.1,-0.2 -2.3,-0.6 -3.4,-0.9 -0.1,0 -3.5,-2 -3.5,-2 -0.9,-0.7 -1.5,-1.8 -2.7,-2.3 -1.1,0.2 -2.7,0.2 -3.8,-0.2 l -0.2,-1.3 -0.5,-2.7 c -1.4,-3 -4.5,-6.3 -6.9,-8.8 -2.1,-0.1 -11.1,-0.2 -12.3,-0.6 -0.9,-0.3 -2.1,-1.1 -2.9,-1.5 -2.2,0.2 -5.1,0.9 -7.3,0.8 -0.1,0 -3.5,-1.2 -3.9,-1.3 -3.9,-1.3 -5.8,0.2 -7.7,3.9 l -1.2,0.2 c -0.7,-0.2 -1.4,-1.6 -1.5,-2.2 0.3,-2.6 1.9,-4.6 2.4,-7.1 l -0.3,-1 c -5.6,-1.3 -6,-0.8 -11.5,-0.5 -1.2,0.1 -2.8,0 -4,0.2 -4.6,0.9 -4.3,1.1 -8.9,3.8 -1.8,1.1 -5.1,3.5 -7.1,4.3 l -3.7,0.4 c -3.7,-0.6 -11,-4.5 -14.7,-6 l -1.6,-2.7 c -2.7,-1 -5.8,-2.5 -8.6,-3.2 -0.6,-0.2 -8.4,-0.3 -9.3,-0.1 -1.2,0.3 -2.5,1.2 -3.7,1.6 -1.1,0.4 -2.8,0.2 -4,0.4 -3.7,0.6 -7.3,1.5 -11,2.2 l 0.8,4.5 -3.2,4.2 c -0.3,0.4 -7,5.3 -7.3,5.6 l -1.5,-0.2 -2.7,-3.2 -5.8,-0.6 -1.4,-1.7 c -0.7,-2.9 -1.9,-6.2 -2.4,-9.2 l 0.1,-4.2 0.1,-2.1 -1.7,-2.4 c -2.3,-0.8 -4.6,-1.6 -6.5,-3 l -2.1,0 c -0.5,0.6 -1.2,1.1 -1.8,1.6 -0.4,2.2 -0.7,6.1 -2.7,7.3 -5.5,1.6 -15.4,3.5 -21,2.7 -1.5,-0.2 -3.4,-1 -4.9,-1.5 l -0.3,-0.1 c -1.8,1.2 -5.6,4.5 -7.3,4.5 -2.7,-1.8 -3.5,-1.6 -7,-2.4 l -0.7,-2.7 c -0.1,-0.4 -3,-1.2 -3.6,-1.4 -1.3,-0.5 -2.5,-1.5 -3.6,-2.3 -7.2,-0.3 -8.6,0.3 -15.8,-3.7 -0.8,0.1 -1.7,0.4 -2.5,0.3 -5.8,-1.4 -7.1,-0.9 -12.8,0.8 -1.4,0.4 -2.8,1.2 -4.1,1.9 -0.2,-1.5 -2.4,-3.4 -3.6,-4 -0.4,0 -4.5,0.1 -4.6,0.1 -1.4,0.5 -4.4,2 -6.1,1.1 l -5.4,-2.9 -0.8,-0.4 c -1.3,-0.3 -2.7,-0.2 -4.1,-0.5 -1.5,-0.3 -3,-1.1 -4.5,-1.3 -4.4,-0.6 -9.1,1.6 -13.4,2.2 -2.5,0.3 -5.2,0.4 -7.7,0.6 l 0,2.6 c -1,0.5 -1.5,4.6 -4,6.5 -3,0 -2.9,1.6 -5.3,2.7 -1,0.5 -6.2,2 -7.4,1.7 -1.2,-0.3 -3,-1.4 -4.2,-2 -0.8,0.5 -5.1,2.6 -5.5,3.1 -0.3,0.3 -2.7,3.2 -2.8,3.3 -0.2,0.2 -3.1,1.3 -3.6,1.5 -1.1,0.6 -2.5,1.4 -3.5,2.1 -1.2,0.8 -2.7,2.9 -3.9,3.4 -0.1,0 -3.9,0.9 -4,0.9 -2,0.3 -4.9,-1.3 -7.1,-1.7 l -6.3,-1.1 c -3,1.8 -6,3.8 -8.4,6.4 -0.1,0.1 -1.8,0.9 -2.1,1 -2.4,1.2 -4.3,-1 -7.6,1.3 -1.2,2 -3.1,8.1 -3.6,8.8 -4.4,2.4 -9.9,5.8 -14.9,6.2 -4.3,2.9 -8.8,10.2 -12,14.4 -1.5,2 -4.9,1.2 -6,2.8 -0.1,0.3 -0.7,1.8 -0.7,1.9 -0.3,2.8 2.8,5.5 1.6,8.2 l -3.4,7.6 c -0.4,0.9 -2.2,2.1 -3,2.6 -2.5,-0.6 -7.4,-2.2 -10,-1 -2.8,1.2 -5.2,3 -8,4.1 C 14,495.3 12,488.2 9.8,481.1 9.7,480.7 9.5,480.3 9.4,479.9 l -7,-18.3 c 1.5,-2.5 0.8,-5.7 1,-8.4 0.2,-2.1 0.9,-3.7 0.8,-6.1 C 4,442.9 2.8,439 2.3,434.9 c -0.4,-2.8 -0.6,-5.6 -0.8,-8.4 1.9,-2.4 2.2,-9.1 3.7,-12.7 l 0.8,0.1 1,-1.6 c -0.1,-1.5 -0.6,-3.6 -0.5,-5.1 0,-0.3 0.9,-2.1 1,-2.5 0.6,-2.7 -2,-10.6 -3,-12.8 l 1.7,-2.1 -0.5,-0.4 c 0.2,-2.6 0.4,-5.1 0.2,-7.7 0,-0.2 -0.2,-2.3 -0.2,-2.4 1.2,-4.1 2.1,-9.7 4.7,-13.2 -0.6,-1.5 1.1,-3.7 1.4,-5.1 0.1,-0.3 -0.1,-2.2 -0.1,-2.7 0.2,-2.3 1.3,-4.8 1.8,-7.1 0.1,-0.6 0,-1.4 0.1,-2 0.1,-0.4 1,-2.4 1,-2.6 0.1,-4 0.2,-8 0.2,-12 0,-1.3 -0.3,-2.7 -0.2,-4 0.1,-1.4 0.5,-2.9 0.5,-4.3 0,-2.3 -0.4,-5.4 -0.8,-7.7 -0.1,-0.3 -0.7,-2.2 -0.7,-2.3 0.1,-1.5 0.8,-3.5 1.1,-5.1 1.9,-1.4 4.4,-2.8 6.1,-4.4 0.2,-0.2 0.8,-1.8 1,-2 0.1,-0.1 2.4,-2 2.6,-2.1 5.2,-3.6 10.9,-6.4 16,-10 2.8,-1.9 3.6,-5.5 5.7,-7.9 1.5,-1.7 4,-2.9 5.7,-4.5 1,-0.9 1.7,-2.3 2.6,-3.2 1,-1.1 2.3,-2.1 3.4,-3.2 0.3,-0.3 0.5,-0.4 0.7,-0.7 1.2,-2.1 1.9,-4.7 3,-6.9 1.5,-2.8 4.1,-5.6 4.5,-8.9 0.3,-2.8 0.8,-12.9 0.7,-16 -0.2,-3.2 -1.2,-6.4 -1.2,-9.6 0,-0.9 0.3,-1.8 0.3,-2.6 0,-0.5 -0.4,-1.9 -0.4,-2.3 0.1,-1.3 0.7,-2.7 0.8,-4.1 0.3,-2.4 1.2,-12.1 1,-14.4 -0.2,-1.8 -0.7,-3.6 -0.9,-5.4 -0.2,-2.2 2.3,-3.6 1.7,-5.9 1.6,-2.1 3.5,-4.1 4.9,-6.3 1,-1.4 1.6,-3.1 2.5,-4.6 1.1,-1.9 3.1,-3.7 4,-5.6 0.6,-1.2 0.7,-2.8 1.3,-4 0.3,-0.7 1.1,-1.5 1.6,-2.2 0.6,-1.1 1.1,-2.3 1.7,-3.4 l 3,1 c 1,-2.5 2.1,-6.3 3.4,-8.5 0.7,-1.1 2.2,-2.5 3.1,-3.5 0.1,-0.1 0.3,-0.6 0.4,-0.8 3.3,-6.5 7.8,-12.4 10.5,-19.1 0.9,-2.3 0.6,-3.7 1.1,-5.8 0.3,-1.2 1,-2.5 1.4,-3.7 0.4,-1.1 1.6,-2 2.4,-2.9 2.3,-0.8 4.8,-2 7.1,-2.7 1.1,-0.3 2.6,0 3.8,-0.2 0.9,-0.2 1.8,-1 2.8,-1.3 5.1,-1.6 10,-1.9 15.3,-2.3 2.9,-0.2 5.8,0.3 8.7,0.2 2.7,-0.1 3.9,-1.6 5,-1.8 3.8,-0.8 7.5,-2.6 10.4,-5.2 0.9,0.2 2.3,0.2 3.1,-0.2 1,-1.4 3.9,-2.9 5.4,-3.6 l 1.2,0.4 c 1.9,-0.8 3.5,-2.3 5.4,-3.1 0.9,-0.4 2.3,-0.3 3.2,-0.7 1.6,-0.8 3,-2.2 4.6,-3 1.6,-0.8 3.4,-1.3 5,-2 3.9,-1.8 7.5,-4.1 11.4,-5.8 3.2,-1.5 6.6,-2.7 9.9,-4.2 2.1,-1 4.4,-2.2 6.4,-3.4 1.7,-1 3.2,-2.3 4.8,-3.3 3.2,-1.9 8.5,-2.7 12,-3.8 1.4,-0.4 4.2,-2.1 5.8,-1.3 l 0.3,0.5 c 0.2,2.3 -1.5,2.6 -2.1,4 -0.3,0.7 -3.5,11.6 -3.3,12.7 l 2.5,15.3 c 0.3,2 3.5,4.9 4.7,6.5 1.2,1.6 2,3.4 3.2,5 2.1,3 12,10.4 15.4,12.6 2.2,1.4 4.6,2.5 6.8,3.8 1.7,1.1 3.1,2.9 4.8,4 0.4,0.2 2.4,1.1 2.6,1.2 0.9,0.8 1.4,2.3 2.3,3.2 0.8,0.8 2.2,1.4 3,2.3 0.9,1 1.3,2.7 2.2,3.8 0.2,0.3 1.8,1.4 1.9,1.7 0.9,1.5 1.1,3.6 2.1,5 0.1,0.1 3.4,3.3 3.8,3.6 2,1 8.8,4 9.9,5.3 1.3,1.5 1,3 3.3,3.8 2.7,1 5.6,2.4 8.4,3.2 1.8,0.5 4.5,-0.2 5.7,1.7 0.3,2 -2.2,3.7 -1.4,5.8 2.5,3.7 7.1,8.9 5.8,13.7 0.8,1.5 2,3.3 2.2,5 0.1,1.3 -0.4,2.7 -0.3,4 0,0.1 0.7,2.6 0.8,2.8 0.6,1.3 0.9,2 1.5,3.4 l 3.1,6.7 c 0.4,1 0.5,2.2 0.9,3.1 0.3,0.7 0.9,1.2 1.1,1.9 0.5,1.3 0.4,2.4 1.4,3.5 l -0.1,0.8 c -0.2,2.8 -0.5,9.1 0.3,11.5 l 2.1,3.3 c 3.7,5.8 6.5,6.9 12.4,10.5 0.2,0.1 0.5,0.3 0.7,0.5 4.3,1.9 9.4,4.4 14.1,4.6 0.9,0 1.8,-0.2 2.7,-0.2 1.7,0 3.8,0.1 5.4,0.3 0.1,0 1.1,0.7 1.2,0.7 0.2,1.1 4.4,9.2 5.2,10.1 1,1.2 2.8,2.4 4,3.4 0.8,0.7 3.2,0.3 4.1,0.6 1.9,0.5 3.7,2 5.7,2.5 3.9,1.2 9.6,0.2 13.7,0 2.1,-0.1 4.6,-0.3 6.6,-0.9 4.6,-1.5 9.3,-2.8 13.8,-4.6 1.4,-0.5 3,-1.7 4.3,-2.4 1.4,-0.8 4.9,-2.4 6.4,-2.5 2.1,-1.7 6.5,-3 8.4,-5.4 2.2,-2.9 3,-3.3 3.9,-6.8 0,0 0.3,-0.3 0.4,-0.4 0.8,-0.2 1.6,-0.3 2.4,-0.7 0,-0.4 0.1,-1 0.3,-1.4 2.5,0.1 3.7,-1.5 5.6,-2.5 0.7,-0.4 1.7,-0.6 2.4,-0.9 2.3,-1.5 4.7,-1.7 6.9,-2.9 0.2,-0.1 1.5,-1.6 1.8,-1.8 1.5,-1.1 3.3,-1.8 4.8,-2.9 2.9,-2.2 3.9,-4.3 6,-6.8 1.2,-1.4 2.2,-1.6 3.3,-3.9 l 0.9,-0.4 0.6,0.4 1.1,0 -0.5,-1.8 c 2.2,-1.7 4.7,-3.4 6.8,-5.2 0.7,-0.6 1.3,-1.7 1.9,-2.4 1.8,-2 4.5,-3.8 6.1,-6 0.3,-0.4 0.9,-2.7 1.2,-3.2 0.6,-1.1 1.8,-2 2.5,-3.1 1.4,-2.3 2.6,-8 2.3,-10.8 -0.3,-3.1 -1.6,-7.8 -1.6,-10.8 0.1,-4.5 0.5,-9.4 0.2,-13.9 -0.4,-4.6 -1.6,-9.6 -2.4,-14.2 0,-0.2 -0.1,-0.4 -0.1,-0.5 -0.1,-1.8 0,-3.7 -0.2,-5.5 0,-0.4 -0.7,-2.1 -0.7,-2.4 0,-2.2 0.7,-4.7 0.5,-6.9 -0.2,-2 -2,-7.9 -3.1,-9.9 0.1,-0.6 1,-5.7 0.9,-5.9 0,-0.3 -0.5,-3.5 -0.5,-3.7 0.4,-3.2 1.5,-6.6 2.2,-9.7 -2.6,-5.6 -2.1,-17.2 -6.1,-20 l 0.5,-13 c 2.2,0 5.3,-0.6 7.1,0.9 1.2,-0.6 5,-2.3 6.3,-2.3 l -1.5,-0.5 c -1.1,0 -2.9,1.2 -3.7,2 l -1.2,0 -1.2,-1 c -1.1,0.4 -3.7,-0.6 -4.9,-0.9 -1.5,-1.9 -0.6,-12.8 -2,-16.9 1.2,-2.2 0.4,-4.7 2,-6.8 l -1,-2.3 0.2,-3.8 z"
         inkscape:connector-curvature="0" /></defs><clipPath
       id="SVGID_2_"><use
         xlink:href="#SVGID_1_"
         overflow="visible"
         id="use9"
         style="overflow:visible"
         x="0"
         y="0"
         width="100%"
         height="100%" /></clipPath><path
       clip-path="url(#SVGID_2_)"
       d="m 0,0 1200,0 0,600 -1200,0"
       id="path11"
       inkscape:connector-curvature="0"
       style="fill:#9e3039" /><path
       clip-path="url(#SVGID_2_)"
       d="m 0,240 1200,0 0,120 -1200,0"
       id="path13"
       inkscape:connector-curvature="0"
       style="fill:#ffffff" /><use
       xlink:href="#SVGID_1_"
       overflow="visible"
       stroke-miterlimit="10"
       id="use15"
       style="overflow:visible;fill:none;stroke:#9e3039;stroke-width:2;stroke-miterlimit:4;stroke-dasharray:none"
       x="0"
       y="0"
       width="100%"
       height="100%" /></g></svg>